<svg version="1.0" xmlns="http://www.w3.org/2000/svg" width="682.667" height="682.667" viewBox="0 0 512 512"><path d="M366 1.2c-20.2 2.1-38.6 13.1-50.1 29.9-5.6 8.3-8.5 15.5-11.4 28.7-8 35.7-19.9 65.5-36.8 92.7-4.7 7.6-10.9 16.6-13.2 19.1-.5.7-2.6 3.2-4.5 5.7-5 6.5-24.4 25.5-31.3 30.6-6.6 5-5.1 5.5-16.1-5.3-3.9-3.7-9.4-8.4-12.1-10.2-14.1-9.5-33.9-10.7-48.7-3l-5.2 2.7-4-3c-9.6-7.2-22.6-12.9-33.1-14.6-4.9-.7-17.9-.7-22 0-22.1 4.2-36.3 13.8-53.6 36.7C13.6 224.6 3 242.8 3 246.9c0 1.1 1.9 4.4 4.3 7.3l4.3 5.3-2.9 4c-1.6 2.2-4 6.2-5.5 9-4.4 8.7-3.6 21.2 2 29.1 2.1 2.9 17.4 19.2 46.8 49.8 16 16.6 88.4 89.1 106.1 106.1 14 13.5 41.4 39.6 47.2 45 6.8 6.2 12.5 8.5 21.2 8.5 6.7 0 11.3-1.8 19.6-7.4 3-2 5.6-3.6 5.9-3.6.3 0 2.6 1.8 5 4 5.6 5 8.1 5.1 16.8.4 21.2-11.5 43.4-29.5 51.8-42.1 10.6-15.9 14.4-37.2 10-55.8-2.1-8.7-8.3-21.7-13.1-27.2l-3.6-4.3 2-3.7c4.4-8.3 5.4-11.8 5.7-21.5.6-16.3-3.9-26.5-18.5-41.7-3.9-4-7.1-7.8-7.1-8.4 0-1.6 10.7-14.4 19.4-23.1 12.5-12.5 24.5-21.8 44.1-34.3 15.1-9.5 43.6-21.7 66.1-28.3 7.6-2.2 14.2-4.6 14.6-5.3 2.5-3.6 2.8-4.7 1.8-7.3-1.3-3.3-3.8-5.3-6.6-5.4-3 0-23.9 6.3-36.9 11.1-24.4 9.1-53.2 25-73.2 40.5-9.2 7.2-29.7 27.1-34.8 33.8-6.5 8.5-2.2 11.3-38.7-25.4l-32.7-32.9 7.7-6.4c15.1-12.7 26.3-24.6 37.7-40.2 23.6-32.4 40-69.8 49.5-113 3.1-14.2 7.7-23.2 15.8-31.4 16.1-16.1 34.4-19.9 60.1-12.4 24.6 7.1 46.4 20.3 64.3 39.1 17.8 18.8 29.6 40.7 35.8 66.7 6.2 25.6-5 50.8-27.6 62.3-5.2 2.7-7.1 6.9-4.9 11.2 2.8 5.3 6.7 5.3 15.8-.1 8.5-5.1 19-15.6 24-24 6.3-10.7 9-20.6 9.1-33.4.1-9.9-.5-15.9-2-20.7-.3-.9-.7-2.5-.9-3.6-.2-1-1.7-6-3.4-11.1-10.8-32.3-32.1-60.1-61-79.8C419 9.2 387.4-.9 366 1.2zm-265 189c10.6 2.8 19.7 8.1 29 16.8 43.7 41 160.2 157.9 178.9 179.5 18 20.9 17.7 53.1-.7 73.6-8.6 9.6-37.7 30.9-42.2 30.9-.6 0-4.2-2.9-7.8-6.4-3.7-3.6-8-7.7-9.7-9.2-4-3.6-37.9-36-58.9-56.4-20-19.4-80.4-79.9-102.8-102.9-14.3-14.7-16-16.1-19.2-16.1-2.5 0-4 .7-5.5 2.6-2.5 3.2-2.1 6.3 1.3 10.9 3 4 104.6 105.9 126.7 127 8.5 8.3 22.9 22 31.9 30.5 8.9 8.5 16.9 16.1 17.7 16.9 1.2 1.1.7 1.8-3.3 4.3-8.3 5.2-14.4 5-20.9-.8C185 464 86.5 366.2 40 317c-8-8.4-16-16.8-17.7-18.6-8.8-8.9-9.4-15.8-2-24.8l2.4-2.9 6.9 7.3c12.6 13.3 14.5 15 16.9 15 3.7 0 5.5-1 7-4.1 1.3-2.4 1.3-3.4.3-5.8-1.1-2.4-18.5-21.6-31.2-34.4-3.4-3.4-3.3-3.7 5.1-16.7 11.1-17.1 22.8-29.8 32.6-35.6 9.4-5.5 17.4-7.4 29.2-7 5.5.2 10.7.6 11.5.8zm76.2 12c3.2 1.5 8.7 5.5 12.9 9.4 20.6 19.4 74.7 73.3 104.2 103.9 12.8 13.3 16.6 19.6 17.4 29.4.4 5.1.1 8.3-1.2 12.5-1 3.1-2.1 5.6-2.4 5.6-.3 0-5.8-5.5-12.1-12.2-15.4-16.4-111.3-112.4-131.9-132.1l-16.4-15.6 2.9-1.2c9-3.6 18.3-3.5 26.6.3z"/></svg>