<?xml version="1.0" standalone="no"?>
<!DOCTYPE svg PUBLIC "-//W3C//DTD SVG 20010904//EN"
 "http://www.w3.org/TR/2001/REC-SVG-20010904/DTD/svg10.dtd">
<svg version="1.0" xmlns="http://www.w3.org/2000/svg"
 width="512.000000pt" height="512.000000pt" viewBox="0 0 512.000000 512.000000"
 preserveAspectRatio="xMidYMid meet">
<metadata>
Created by potrace 1.14, written by Peter Selinger 2001-2017
</metadata>
<g transform="translate(0.000000,512.000000) scale(0.100000,-0.100000)"
fill="#000000" stroke="none">
<path d="M3660 5108 c-202 -21 -386 -131 -501 -299 -56 -83 -85 -155 -114
-287 -80 -357 -199 -655 -368 -927 -47 -76 -109 -166 -132 -191 -5 -7 -26 -32
-45 -57 -50 -65 -244 -255 -313 -306 -66 -50 -51 -55 -161 53 -39 37 -94 84
-121 102 -141 95 -339 107 -487 30 l-52 -27 -40 30 c-96 72 -226 129 -331 146
-49 7 -179 7 -220 0 -221 -42 -363 -138 -536 -367 -103 -134 -209 -316 -209
-357 0 -11 19 -44 43 -73 l43 -53 -29 -40 c-16 -22 -40 -62 -55 -90 -44 -87
-36 -212 20 -291 21 -29 174 -192 468 -498 160 -166 884 -891 1061 -1061 140
-135 414 -396 472 -450 68 -62 125 -85 212 -85 67 0 113 18 196 74 30 20 56
36 59 36 3 0 26 -18 50 -40 56 -50 81 -51 168 -4 212 115 434 295 518 421 106
159 144 372 100 558 -21 87 -83 217 -131 272 l-36 43 20 37 c44 83 54 118 57
215 6 163 -39 265 -185 417 -39 40 -71 78 -71 84 0 16 107 144 194 231 125
125 245 218 441 343 151 95 436 217 661 283 76 22 142 46 146 53 25 36 28 47
18 73 -13 33 -38 53 -66 54 -30 0 -239 -63 -369 -111 -244 -91 -532 -250 -732
-405 -92 -72 -297 -271 -348 -338 -65 -85 -22 -113 -387 254 l-327 329 77 64
c151 127 263 246 377 402 236 324 400 698 495 1130 31 142 77 232 158 314 161
161 344 199 601 124 246 -71 464 -203 643 -391 178 -188 296 -407 358 -667 62
-256 -50 -508 -276 -623 -52 -27 -71 -69 -49 -112 28 -53 67 -53 158 1 85 51
190 156 240 240 63 107 90 206 91 334 1 99 -5 159 -20 207 -3 9 -7 25 -9 36
-2 10 -17 60 -34 111 -108 323 -321 601 -610 798 -251 171 -567 272 -781 251z
m-2650 -1890 c106 -28 197 -81 290 -168 437 -410 1602 -1579 1789 -1795 180
-209 177 -531 -7 -736 -86 -96 -377 -309 -422 -309 -6 0 -42 29 -78 64 -37 36
-80 77 -97 92 -40 36 -379 360 -589 564 -200 194 -804 799 -1028 1029 -143
147 -160 161 -192 161 -25 0 -40 -7 -55 -26 -25 -32 -21 -63 13 -109 30 -40
1046 -1059 1267 -1270 85 -83 229 -220 319 -305 89 -85 169 -161 177 -169 12
-11 7 -18 -33 -43 -83 -52 -144 -50 -209 8 -305 274 -1290 1252 -1755 1744
-80 84 -160 168 -177 186 -88 89 -94 158 -20 248 l24 29 69 -73 c126 -133 145
-150 169 -150 37 0 55 10 70 41 13 24 13 34 3 58 -11 24 -185 216 -312 344
-34 34 -33 37 51 167 111 171 228 298 326 356 94 55 174 74 292 70 55 -2 107
-6 115 -8z m762 -120 c32 -15 87 -55 129 -94 206 -194 747 -733 1042 -1039
128 -133 166 -196 174 -294 4 -51 1 -83 -12 -125 -10 -31 -21 -56 -24 -56 -3
0 -58 55 -121 122 -154 164 -1113 1124 -1319 1321 l-164 156 29 12 c90 36 183
35 266 -3z"/>
</g>
</svg>
